# Blender v2.79 (sub 0) OBJ File: ''
# www.blender.org
mtllib 7.mtl.mtl
o laptop_dell_M4600_-_pin-2
v 8.793434 260.435303 -13.679030
v 178.793442 260.435303 -13.679030
v 8.793434 260.435303 -11.679029
v 178.793442 260.435303 -11.679029
v 8.793434 333.365295 -11.679029
v 178.793442 333.365295 -11.679029
v 178.793442 333.365295 -13.679030
v 8.793434 333.365295 -13.679030
vn 0.0000 -1.0000 0.0000
vn -1.0000 0.0000 0.0000
vn 0.0000 0.0000 1.0000
vn 1.0000 0.0000 0.0000
vn 0.0000 1.0000 0.0000
vn 0.0000 0.0000 -1.0000
usemtl None
s off
f 1//1 2//1 3//1
f 2//1 4//1 3//1
f 5//2 1//2 3//2
f 6//3 5//3 3//3
f 4//3 6//3 3//3
f 2//4 7//4 4//4
f 7//4 6//4 4//4
f 8//2 1//2 5//2
f 6//5 8//5 5//5
f 7//5 8//5 6//5
f 8//6 2//6 1//6
f 8//6 7//6 2//6
